<svg xmlns="http://www.w3.org/2000/svg" width="55" height="22" viewBox="0 0 55 22"><g fill="#FF4E50"><path d="M23.6 28.4C22.8 27.6 22.8 26.4 23.6 25.6 24.4 24.8 25.6 24.8 26.4 25.6 27.2 26.4 27.2 27.6 26.4 28.4 25.6 29.2 24.4 29.2 23.6 28.4M23.6 3.4C22.8 2.6 22.8 1.4 23.6 24.4-0.2 25.6-0.2 26.4 27.2 1.4 27.2 2.6 26.4 3.4 25.6 4.2 24.4 4.2 23.6 3.4M23.6 15.4C22.8 14.6 22.8 13.4 23.6 12.6 24.4 11.8 25.6 11.8 26.4 12.6 27.2 13.4 27.2 14.6 26.4 15.4 25.6 16.2 24.4 16.2 23.6 15.4M15.4 36.6C16.2 37.4 16.2 38.6 15.4 39.4 14.6 40.2 13.4 40.2 12.6 39.4 11.8 38.6 11.8 37.4 12.6 36.6 13.4 35.8 14.6 35.8 15.4 36.6M2 23L2 23C3.1 23 4 23.9 4 24.9L4 50.1C4 51.1 3.1 52 2 52L2 52C0.9 52 0 51.1 0 50.1L0 24.9C0 23.9 23 2 23M14 28L14 28C12.9 28 12 27.2 12 26.2L12 13.8C12 12.8 12.9 12 14 12L14 12C15.1 12 16 12.8 16 13.8L16 26.2C16 27.2 15.1 28 14 28"/></g></svg>
